<svg width="256" height="196" viewBox="0 0 256 196" fill="none" xmlns="http://www.w3.org/2000/svg">
<path d="M189.734 14.3658C211.442 -13.5115 256 1.90097 256 37.2871V158.786C256 179.339 239.405 196 218.934 196H37.0656C16.5949 196 0.000154877 179.339 0 158.786V37.2871C0 1.90097 44.558 -13.5115 66.2664 14.3658L128 93.6428L189.734 14.3658ZM114.589 151.146C108.248 159.289 114.027 171.191 124.322 171.191H131.678C141.973 171.191 147.752 159.289 141.411 151.146L128 133.923L114.589 151.146ZM46.7992 29.6467C39.5631 20.3542 24.7104 25.4918 24.7104 37.2871V158.786C24.7106 165.637 30.2421 171.191 37.0656 171.191H89.3707C85.3801 159.961 86.6175 146.787 95.1216 135.866L112.317 113.783L46.7992 29.6467ZM231.29 37.2871C231.29 25.4918 216.437 20.3542 209.201 29.6467L143.682 113.783L160.878 135.866C169.383 146.787 170.62 159.961 166.629 171.191H218.934C225.758 171.191 231.289 165.637 231.29 158.786V37.2871Z" fill="#333333"/>
</svg>
